{
  "accessors": [
    {
      "bufferView": 2,
      "componentType": 5126,
      "count": 9835,
      "max": [6.609696865081787, 0.5559499859809875, 11.4732666015625],
      "min": [-5.68803596496582, -0.4356350004673004, 1.080320954322815],
      "type": "VEC3"
    },
    {
      "bufferView": 2,
      "byteOffset": 118020,
      "componentType": 5126,
      "count": 9835,
      "max": [0.9999944567680359, 0.999997615814209, 0.999911904335022],
      "min": [-0.9999882578849792, -0.9999737739562988, -0.9997064471244812],
      "type": "VEC3"
    },
    {
      "bufferView": 1,
      "componentType": 5126,
      "count": 9835,
      "max": [1196.1318359375, 1118.566162109375],
      "min": [-1196.1318359375, -1118.2119140625],
      "type": "VEC2"
    },
    {
      "bufferView": 0,
      "componentType": 5125,
      "count": 49197,
      "type": "SCALAR"
    },
    {
      "bufferView": 2,
      "byteOffset": 236040,
      "componentType": 5126,
      "count": 9223,
      "max": [8.797492980957031, 0.4311249852180481, 7.837601184844971],
      "min": [-5.887947082519531, -0.528560996055603, -2.536890983581543],
      "type": "VEC3"
    },
    {
      "bufferView": 2,
      "byteOffset": 346716,
      "componentType": 5126,
      "count": 9223,
      "max": [1.0, 0.999995231628418, 0.9996102452278137],
      "min": [-0.9999423623085022, -1.0, -0.9998517632484436],
      "type": "VEC3"
    },
    {
      "bufferView": 1,
      "byteOffset": 78680,
      "componentType": 5126,
      "count": 9223,
      "max": [1485.078369140625, 1118.566162109375],
      "min": [-1485.078369140625, -1118.2119140625],
      "type": "VEC2"
    },
    {
      "bufferView": 0,
      "byteOffset": 196788,
      "componentType": 5125,
      "count": 44916,
      "type": "SCALAR"
    },
    {
      "bufferView": 2,
      "byteOffset": 457392,
      "componentType": 5126,
      "count": 9585,
      "max": [4.415582180023193, 0.5478090047836304, 15.240629196166992],
      "min": [-9.846363067626953, -0.546779990196228, -2.536890983581543],
      "type": "VEC3"
    },
    {
      "bufferView": 2,
      "byteOffset": 572412,
      "componentType": 5126,
      "count": 9585,
      "max": [1.0, 0.9999894499778748, 0.9999853372573853],
      "min": [-0.9996444582939148, -0.9999686479568481, -0.9999166131019592],
      "type": "VEC3"
    },
    {
      "bufferView": 1,
      "byteOffset": 152464,
      "componentType": 5126,
      "count": 9585,
      "max": [960.442626953125, 911.91162109375],
      "min": [-960.4425048828125, -902.7569580078125],
      "type": "VEC2"
    },
    {
      "bufferView": 0,
      "byteOffset": 376452,
      "componentType": 5125,
      "count": 47460,
      "type": "SCALAR"
    },
    {
      "bufferView": 2,
      "byteOffset": 687432,
      "componentType": 5126,
      "count": 9544,
      "max": [8.720977783203125, 0.504472017288208, 15.16965103149414],
      "min": [-9.847925186157227, -0.461232990026474, 8.074865341186523],
      "type": "VEC3"
    },
    {
      "bufferView": 2,
      "byteOffset": 801960,
      "componentType": 5126,
      "count": 9544,
      "max": [1.0, 0.9999966621398926, 0.9999279975891113],
      "min": [-0.9999242424964905, -0.9999988675117493, -0.9999656677246094],
      "type": "VEC3"
    },
    {
      "bufferView": 1,
      "byteOffset": 229144,
      "componentType": 5126,
      "count": 9544,
      "max": [913.709716796875, 911.91162109375],
      "min": [-913.709716796875, -902.7569580078125],
      "type": "VEC2"
    },
    {
      "bufferView": 0,
      "byteOffset": 566292,
      "componentType": 5125,
      "count": 47973,
      "type": "SCALAR"
    },
    {
      "bufferView": 2,
      "byteOffset": 916488,
      "componentType": 5126,
      "count": 8907,
      "max": [5.893123149871826, 0.5313599705696106, 15.005295753479004],
      "min": [-9.723726272583008, -0.5571759939193726, 1.2062000036239624],
      "type": "VEC3"
    },
    {
      "bufferView": 2,
      "byteOffset": 1023372,
      "componentType": 5126,
      "count": 8907,
      "max": [0.9997977614402771, 0.9999473690986633, 0.9995957612991333],
      "min": [-0.9999675154685974, -0.9999695420265198, -0.9995443820953369],
      "type": "VEC3"
    },
    {
      "bufferView": 1,
      "byteOffset": 305496,
      "componentType": 5126,
      "count": 8907,
      "max": [1045.267578125, 872.8707275390625],
      "min": [-1045.267822265625, -872.8706665039063],
      "type": "VEC2"
    },
    {
      "bufferView": 0,
      "byteOffset": 758184,
      "componentType": 5125,
      "count": 45108,
      "type": "SCALAR"
    },
    {
      "bufferView": 2,
      "byteOffset": 1130256,
      "componentType": 5126,
      "count": 2233,
      "max": [9.882417678833008, 0.5001479983329773, 7.907297134399414],
      "min": [6.68905782699585, -0.2900969982147217, 4.576670169830322],
      "type": "VEC3"
    },
    {
      "bufferView": 2,
      "byteOffset": 1157052,
      "componentType": 5126,
      "count": 2233,
      "max": [0.9996095299720764, 0.999999463558197, 0.9987236261367798],
      "min": [-0.9996241331100464, -0.9999884963035583, -0.9998536705970764],
      "type": "VEC3"
    },
    {
      "bufferView": 1,
      "byteOffset": 376752,
      "componentType": 5126,
      "count": 2233,
      "max": [9.707048416137695, 10.125626564025879],
      "min": [-9.707050323486328, -10.125629425048828],
      "type": "VEC2"
    },
    {
      "bufferView": 0,
      "byteOffset": 938616,
      "componentType": 5125,
      "count": 11289,
      "type": "SCALAR"
    }
  ],
  "asset": {
    "extras": {
      "author": "danny_p3d (https://sketchfab.com/dannyp_3d)",
      "license": "CC-BY-4.0 (http://creativecommons.org/licenses/by/4.0/)",
      "source": "https://sketchfab.com/3d-models/letter-balloons-1dddbbd0e345485bbe557e68827ce9be",
      "title": "Letter-balloons"
    },
    "generator": "Sketchfab-12.64.0",
    "version": "2.0"
  },
  "bufferViews": [
    {
      "buffer": 0,
      "byteLength": 983772,
      "name": "floatBufferViews",
      "target": 34963
    },
    {
      "buffer": 0,
      "byteLength": 394616,
      "byteOffset": 983772,
      "byteStride": 8,
      "name": "floatBufferViews",
      "target": 34962
    },
    {
      "buffer": 0,
      "byteLength": 1183848,
      "byteOffset": 1378388,
      "byteStride": 12,
      "name": "floatBufferViews",
      "target": 34962
    }
  ],
  "buffers": [
    {
      "byteLength": 2562236,
      "uri": "balloons.bin"
    }
  ],
  "materials": [
    {
      "doubleSided": true,
      "name": "anisotropic1SG",
      "pbrMetallicRoughness": {
        "baseColorFactor": [
          0.42862209181874644, 0.3122146511989918, 0.17126919556154843, 1.0
        ],
        "roughnessFactor": 0.19073932926829268
      }
    }
  ],
  "meshes": [
    {
      "name": "Object_0",
      "primitives": [
        {
          "attributes": {
            "NORMAL": 1,
            "POSITION": 0,
            "TEXCOORD_0": 2
          },
          "indices": 3,
          "material": 0,
          "mode": 4
        }
      ]
    },
    {
      "name": "Object_1",
      "primitives": [
        {
          "attributes": {
            "NORMAL": 5,
            "POSITION": 4,
            "TEXCOORD_0": 6
          },
          "indices": 7,
          "material": 0,
          "mode": 4
        }
      ]
    },
    {
      "name": "Object_2",
      "primitives": [
        {
          "attributes": {
            "NORMAL": 9,
            "POSITION": 8,
            "TEXCOORD_0": 10
          },
          "indices": 11,
          "material": 0,
          "mode": 4
        }
      ]
    },
    {
      "name": "Object_3",
      "primitives": [
        {
          "attributes": {
            "NORMAL": 13,
            "POSITION": 12,
            "TEXCOORD_0": 14
          },
          "indices": 15,
          "material": 0,
          "mode": 4
        }
      ]
    },
    {
      "name": "Object_4",
      "primitives": [
        {
          "attributes": {
            "NORMAL": 17,
            "POSITION": 16,
            "TEXCOORD_0": 18
          },
          "indices": 19,
          "material": 0,
          "mode": 4
        }
      ]
    },
    {
      "name": "Object_5",
      "primitives": [
        {
          "attributes": {
            "NORMAL": 21,
            "POSITION": 20,
            "TEXCOORD_0": 22
          },
          "indices": 23,
          "material": 0,
          "mode": 4
        }
      ]
    }
  ],
  "nodes": [
    {
      "children": [1],
      "matrix": [
        1.0, 0.0, 0.0, 0.0, 0.0, 2.220446049250313e-16, -1.0, 0.0, 0.0, 1.0,
        2.220446049250313e-16, 0.0, 0.0, 0.0, 0.0, 1.0
      ],
      "name": "Sketchfab_model"
    },
    {
      "children": [2, 3, 4, 5, 6, 7],
      "name": "letterballoons.obj.cleaner.materialmerger.gles"
    },
    {
      "mesh": 0,
      "name": "Object_2"
    },
    {
      "mesh": 1,
      "name": "Object_3"
    },
    {
      "mesh": 2,
      "name": "Object_4"
    },
    {
      "mesh": 3,
      "name": "Object_5"
    },
    {
      "mesh": 4,
      "name": "Object_6"
    },
    {
      "mesh": 5,
      "name": "Object_7"
    }
  ],
  "scene": 0,
  "scenes": [
    {
      "name": "Sketchfab_Scene",
      "nodes": [0]
    }
  ]
}
